<svg width="254" height="259" viewBox="0 0 254 259" fill="none" xmlns="http://www.w3.org/2000/svg">
<g filter="url(#filter0_d_1493_32)">
<path d="M127.841 46.0114C128.992 38.2042 140.253 38.2042 141.404 46.0114C142.391 52.7076 151.455 54.0735 154.372 47.9657C157.773 40.8444 168.535 44.1635 167.333 51.9631C166.302 58.653 174.561 62.63 179.149 57.6532C184.497 51.8507 193.803 58.195 190.355 65.294C187.399 71.3828 194.118 77.6174 199.969 74.2139C206.79 70.2459 213.812 79.0509 208.426 84.8184C203.806 89.7652 208.389 97.7033 214.983 96.1756C222.671 94.3945 226.785 104.878 219.938 108.802C214.065 112.167 216.105 121.103 222.856 121.587C230.727 122.151 231.568 133.381 223.869 135.112C217.265 136.597 216.581 145.738 222.889 148.19C230.245 151.049 227.739 162.029 219.871 161.414C213.123 160.886 209.774 169.419 215.08 173.622C221.266 178.522 215.635 188.275 208.298 185.368C202.006 182.875 196.291 190.041 200.122 195.621C204.589 202.127 196.333 209.787 190.179 204.846C184.901 200.609 177.327 205.772 179.343 212.234C181.694 219.767 171.547 224.654 167.123 218.119C163.329 212.514 154.57 215.216 154.592 221.985C154.618 229.876 143.481 231.554 141.18 224.006C139.206 217.531 130.039 217.531 128.065 224.006C125.764 231.554 114.627 229.876 114.653 221.984C114.675 215.216 105.916 212.514 102.122 218.119C97.6975 224.654 87.5508 219.767 89.9015 212.234C91.9176 205.772 84.3443 200.609 79.0661 204.846C72.9123 209.787 64.6566 202.127 69.1233 195.621C72.9544 190.041 67.2394 182.875 60.9468 185.368C53.6101 188.275 47.9789 178.522 54.1648 173.622C59.4706 169.419 56.1217 160.886 49.3735 161.414C41.5058 162.029 38.9998 151.049 46.3554 148.19C52.6642 145.738 51.9794 136.597 45.3756 135.112C37.6763 133.381 38.5178 122.151 46.3891 121.587C53.1404 121.103 55.18 112.167 49.3072 108.802C42.46 104.878 46.5745 94.3945 54.2625 96.1756C60.8566 97.7033 65.4397 89.7653 60.8197 84.8185C55.4332 79.051 62.4549 70.246 69.2763 74.214C75.1271 77.6174 81.8462 71.3829 78.8895 65.2941C75.4423 58.1951 84.7476 51.8507 90.0965 57.6532C94.6842 62.63 102.943 58.653 101.912 51.9632C100.71 44.1635 111.472 40.8444 114.873 47.9657C117.79 54.0735 126.854 52.7076 127.841 46.0114Z" fill="url(#paint0_linear_1493_32)"/>
</g>
<path d="M91.3181 157.553L76.2131 161.55L75.2737 158L77.0612 157.527C76.1761 157.169 75.4424 156.635 74.86 155.928C74.2608 155.224 73.8435 154.428 73.6081 153.538C73.3638 152.615 73.3365 151.697 73.5261 150.785C73.6989 149.877 74.0919 149.055 74.705 148.318C73.7943 147.931 73.0283 147.343 72.4069 146.556C71.7687 145.773 71.3141 144.869 71.0432 143.846C70.7545 142.755 70.7376 141.673 70.9924 140.6C71.2472 139.527 71.7751 138.57 72.5764 137.729C73.3776 136.889 74.4495 136.291 75.7922 135.935L84.9559 133.51L86.0085 137.488L77.3986 139.766C76.442 140.02 75.718 140.507 75.2268 141.23C74.7312 141.936 74.6055 142.75 74.8498 143.673C74.9875 144.194 75.236 144.658 75.5953 145.066C75.9546 145.473 76.4154 145.755 76.9776 145.912C77.5398 146.068 78.1986 146.047 78.9538 145.847L87.6141 143.555L88.6667 147.533L80.0568 149.811C79.419 149.98 78.8817 150.257 78.4448 150.642C77.9911 151.031 77.6816 151.49 77.5162 152.019C77.334 152.552 77.3229 153.121 77.4827 153.725C77.616 154.228 77.8707 154.682 78.2468 155.085C78.6061 155.493 79.0691 155.784 79.6357 155.957C80.198 156.113 80.8567 156.092 81.612 155.892L90.2722 153.6L91.3181 157.553ZM86.9289 123.786C86.6195 125.176 85.9806 126.367 85.0123 127.361C84.0271 128.351 82.8555 129.06 81.4976 129.487C80.1266 129.893 78.7124 129.934 77.255 129.609C75.7976 129.285 74.5428 128.65 73.4906 127.704C72.4252 126.738 71.6649 125.599 71.2097 124.288C70.7376 122.974 70.6562 121.621 70.9656 120.232C71.1882 119.232 71.5718 118.348 72.1163 117.58C72.6608 116.812 73.3211 116.203 74.0971 115.753L72.4195 115.38L73.1948 111.897L88.4464 115.293L87.671 118.776L85.9933 118.402C86.4883 119.135 86.8278 119.966 87.012 120.897C87.1792 121.823 87.1515 122.786 86.9289 123.786ZM83.5031 122.517C83.6843 121.703 83.6431 120.929 83.3798 120.195C83.1203 119.443 82.7034 118.799 82.1293 118.262C81.5382 117.721 80.836 117.361 80.0226 117.179C79.2092 116.998 78.4286 117.029 77.6809 117.272C76.9163 117.51 76.2571 117.915 75.7032 118.485C75.1531 119.039 74.7894 119.714 74.6121 120.51C74.431 121.324 74.4702 122.106 74.7298 122.858C74.9931 123.592 75.4203 124.23 76.0113 124.77C76.5855 125.307 77.2792 125.666 78.0926 125.847C78.9061 126.028 79.6951 126 80.4597 125.761C81.2074 125.518 81.8563 125.12 82.4064 124.567C82.9602 123.996 83.3258 123.313 83.5031 122.517ZM95.606 103.295L84.8755 103.941L81.9412 95.6311L84.3977 91.9168L87.107 99.9529L98.2923 99.2326L95.606 103.295ZM89.903 111.918L69.0507 98.1272L71.306 94.717L92.1584 108.508L89.903 111.918ZM99.7159 97.965L89.2511 86.362L92.2873 83.6237L102.752 95.2267L99.7159 97.965ZM89.1743 83.205C88.6973 83.6353 88.1458 83.8404 87.5199 83.8204C86.8953 83.7759 86.3679 83.5151 85.9377 83.0381C85.4958 82.5482 85.2907 81.9968 85.3223 81.3838C85.3668 80.7591 85.6276 80.2317 86.1046 79.8015C86.5945 79.3597 87.1459 79.1545 87.7589 79.1862C88.3719 79.2178 88.8994 79.4785 89.3412 79.9684C89.7714 80.4454 89.9765 80.9969 89.9565 81.6228C89.9249 82.2358 89.6642 82.7632 89.1743 83.205ZM105.903 93.0563L98.7963 79.141L102.066 77.4709L102.943 79.1871C103.098 78.2308 103.456 77.3853 104.016 76.6507C104.569 75.9006 105.278 75.3045 106.144 74.8623C107.133 74.3569 108.176 74.1267 109.271 74.1718C110.381 74.2089 111.433 74.5493 112.424 75.1931C113.408 75.8214 114.231 76.7849 114.895 78.0837L119.099 86.3169L115.458 88.1765L111.502 80.4303C111.06 79.5644 110.414 78.9294 109.564 78.5251C108.714 78.1208 107.818 78.1595 106.875 78.6412C106.102 79.036 105.552 79.658 105.225 80.5071C104.891 81.3407 105 82.2987 105.553 83.381L109.544 91.1968L105.903 93.0563ZM129.788 93.0783C128.578 93.1913 127.42 93.1163 126.315 92.8534C125.228 92.6062 124.259 92.2172 123.407 91.6864L124.033 87.4693C124.656 88.1609 125.43 88.699 126.355 89.0833C127.299 89.4834 128.333 89.631 129.456 89.5261C131.081 89.3743 132.316 88.7795 133.161 87.7416C134.007 86.721 134.361 85.4674 134.222 83.9808L134.101 82.6844C133.537 83.3648 132.848 83.926 132.035 84.3681C131.222 84.8102 130.305 85.0789 129.285 85.1742C127.868 85.3065 126.538 85.0646 125.294 84.4483C124.05 83.8148 123.016 82.9175 122.192 81.7564C121.385 80.5764 120.911 79.243 120.772 77.7565C120.634 76.2699 120.853 74.8806 121.429 73.5888C122.022 72.278 122.872 71.2047 123.98 70.369C125.086 69.5159 126.347 69.0232 127.765 68.8908C128.785 68.7956 129.744 68.8891 130.642 69.1714C131.54 69.4537 132.322 69.895 132.989 70.4954L132.829 68.7841L136.381 68.4524L137.849 84.1653C138.007 85.8593 137.736 87.3492 137.037 88.6351C136.337 89.921 135.343 90.9467 134.055 91.7122C132.766 92.4777 131.344 92.933 129.788 93.0783ZM129.442 81.524C130.271 81.4466 130.995 81.1697 131.613 80.6935C132.249 80.2157 132.734 79.6211 133.068 78.9099C133.401 78.1813 133.529 77.4022 133.452 76.5724C133.374 75.7427 133.105 75.0093 132.645 74.3723C132.183 73.718 131.595 73.2149 130.882 72.863C130.187 72.5095 129.432 72.3706 128.62 72.4465C127.79 72.524 127.058 72.8016 126.422 73.2795C125.804 73.7557 125.329 74.358 124.996 75.0866C124.661 75.7979 124.532 76.5684 124.61 77.3981C124.687 78.2278 124.957 78.9698 125.419 79.6242C125.88 80.2612 126.458 80.7565 127.154 81.11C127.866 81.4619 128.629 81.5999 129.442 81.524ZM150.799 86.6013L155.293 75.1047L152.431 73.986L153.626 70.9299L156.561 72.0771L158.457 67.2262L162.119 68.6578L160.223 73.5087L163.279 74.7033L162.085 77.7594L159.101 76.5932L154.607 88.0898L150.799 86.6013ZM159.701 90.6965L175.319 71.1756L178.512 73.7299L171.76 82.1686C172.584 82.0276 173.392 82.0738 174.184 82.307C174.986 82.5266 175.72 82.9022 176.384 83.4337C177.252 84.1278 177.89 84.9833 178.299 86.0001C178.722 87.0277 178.844 88.1258 178.665 89.2944C178.497 90.4494 177.957 91.5963 177.046 92.735L171.271 99.9537L168.078 97.3994L173.512 90.6077C174.12 89.8486 174.433 88.9986 174.452 88.0578C174.471 87.1169 174.067 86.3157 173.24 85.6541C172.562 85.1118 171.769 84.8664 170.861 84.9178C169.963 84.9557 169.135 85.4492 168.376 86.3981L162.893 93.2508L159.701 90.6965ZM173.594 102.464L186.196 93.2269L188.613 96.5245L176.011 105.761L173.594 102.464ZM189.345 93.4699C188.965 92.9518 188.817 92.3824 188.9 91.7618C189.008 91.1449 189.32 90.6465 189.838 90.2668C190.371 89.8768 190.94 89.7285 191.547 89.822C192.163 89.9295 192.662 90.2423 193.042 90.7604C193.432 91.2925 193.58 91.8618 193.486 92.4685C193.393 93.0751 193.08 93.5735 192.548 93.9635C192.03 94.3432 191.461 94.4915 190.84 94.4083C190.233 94.3148 189.735 94.002 189.345 93.4699ZM177.852 109.116L192.413 103.449L193.745 106.871L191.949 107.57C192.885 107.82 193.69 108.261 194.364 108.893C195.055 109.518 195.576 110.284 195.929 111.19C196.332 112.226 196.456 113.286 196.301 114.371C196.152 115.472 195.707 116.484 194.967 117.405C194.242 118.321 193.201 119.043 191.842 119.572L183.226 122.924L181.743 119.114L189.849 115.96C190.755 115.607 191.452 115.028 191.94 114.224C192.428 113.419 192.48 112.523 192.096 111.536C191.781 110.727 191.218 110.118 190.406 109.707C189.61 109.29 188.646 109.302 187.513 109.743L179.335 112.926L177.852 109.116ZM175.416 132.871C175.426 131.655 175.618 130.511 175.992 129.438C176.348 128.382 176.833 127.457 177.448 126.664L181.58 127.714C180.828 128.263 180.215 128.979 179.739 129.86C179.245 130.759 178.993 131.772 178.984 132.901C178.97 134.533 179.437 135.821 180.384 136.767C181.313 137.712 182.525 138.191 184.018 138.204L185.32 138.215C184.7 137.584 184.211 136.842 183.854 135.989C183.496 135.135 183.322 134.196 183.331 133.172C183.343 131.748 183.718 130.449 184.457 129.275C185.214 128.1 186.211 127.163 187.45 126.461C188.705 125.777 190.08 125.442 191.573 125.454C193.066 125.467 194.426 125.825 195.652 126.53C196.896 127.252 197.878 128.207 198.597 129.393C199.334 130.58 199.696 131.885 199.684 133.309C199.676 134.333 199.485 135.278 199.114 136.143C198.742 137.008 198.223 137.741 197.559 138.343L199.277 138.358L199.247 141.925L183.467 141.793C181.765 141.779 180.31 141.358 179.102 140.532C177.894 139.706 176.974 138.613 176.343 137.254C175.712 135.894 175.403 134.433 175.416 132.871ZM186.946 133.697C186.939 134.53 187.141 135.278 187.552 135.942C187.963 136.622 188.506 137.165 189.179 137.57C189.87 137.975 190.633 138.181 191.466 138.188C192.299 138.195 193.056 138.002 193.736 137.608C194.434 137.215 194.994 136.681 195.417 136.008C195.839 135.351 196.053 134.615 196.06 133.799C196.067 132.966 195.865 132.209 195.454 131.529C195.043 130.865 194.492 130.331 193.801 129.926C193.127 129.521 192.374 129.315 191.54 129.308C190.707 129.301 189.942 129.494 189.244 129.888C188.563 130.281 188.012 130.806 187.59 131.463C187.168 132.136 186.953 132.881 186.946 133.697ZM180.918 149.84C181.247 148.906 181.739 148.003 182.396 147.13C183.07 146.262 183.805 145.637 184.602 145.255L187.99 147.551C187.135 147.784 186.321 148.216 185.547 148.845C184.784 149.497 184.25 150.257 183.945 151.125C183.714 151.78 183.678 152.301 183.836 152.688C184.005 153.097 184.286 153.371 184.679 153.509C185.122 153.665 185.496 153.621 185.802 153.379C186.124 153.143 186.397 152.89 186.621 152.619L188.1 150.848C188.43 150.485 188.843 150.069 189.34 149.6C189.853 149.136 190.462 148.789 191.169 148.559C191.886 148.351 192.703 148.409 193.621 148.732C194.456 149.025 195.154 149.501 195.714 150.158C196.274 150.815 196.632 151.604 196.787 152.523C196.952 153.465 196.842 154.484 196.456 155.581C196.11 156.564 195.61 157.437 194.955 158.201C194.311 158.986 193.662 159.522 193.009 159.807L189.693 157.619C190.598 157.349 191.377 156.914 192.029 156.316C192.698 155.723 193.153 155.082 193.395 154.394C193.597 153.821 193.616 153.349 193.452 152.979C193.304 152.614 193.058 152.371 192.714 152.25C192.452 152.158 192.172 152.17 191.873 152.285C191.575 152.401 191.266 152.652 190.947 153.036L189.536 154.693C189.177 155.137 188.727 155.605 188.187 156.096C187.662 156.592 187.039 156.952 186.316 157.177C185.587 157.417 184.723 157.362 183.724 157.01C182.315 156.515 181.351 155.596 180.829 154.253C180.318 152.932 180.348 151.461 180.918 149.84ZM167.026 169.954C167.767 169.272 168.58 168.771 169.465 168.45C170.338 168.142 171.215 168.006 172.099 168.042L170.969 166.816L173.593 164.399L190.534 182.783L187.528 185.554L180.363 177.779C180.245 178.548 180.006 179.288 179.646 179.998C179.272 180.72 178.76 181.381 178.109 181.981C177.036 182.969 175.813 183.589 174.439 183.84C173.077 184.103 171.722 184.017 170.376 183.582C169.018 183.157 167.827 182.39 166.803 181.279C165.791 180.181 165.124 178.932 164.8 177.53C164.475 176.153 164.494 174.79 164.856 173.441C165.23 172.105 165.954 170.942 167.026 169.954ZM169.843 172.281C169.23 172.846 168.822 173.505 168.62 174.258C168.404 175.023 168.379 175.79 168.544 176.559C168.721 177.34 169.092 178.037 169.656 178.65C170.221 179.263 170.88 179.683 171.632 179.91C172.396 180.15 173.169 180.194 173.949 180.042C174.716 179.901 175.4 179.554 176 179.001C176.613 178.436 177.027 177.772 177.243 177.006C177.446 176.253 177.459 175.485 177.282 174.704C177.116 173.936 176.751 173.245 176.187 172.632C175.622 172.019 174.958 171.593 174.193 171.353C173.441 171.125 172.681 171.082 171.913 171.223C171.133 171.375 170.443 171.728 169.843 172.281ZM151.487 179.305C153.088 178.68 154.644 178.464 156.154 178.658C157.648 178.857 158.973 179.411 160.13 180.32C161.276 181.252 162.143 182.47 162.73 183.974C163.292 185.413 163.462 186.828 163.241 188.219C163.01 189.633 162.45 190.895 161.56 192.006C160.671 193.118 159.531 193.945 158.14 194.488C156.717 195.043 155.318 195.207 153.943 194.98C152.558 194.775 151.317 194.244 150.218 193.387C149.119 192.53 148.292 191.39 147.737 189.966L147.197 188.584L156.246 185.051C156.65 184.894 157.056 184.763 157.463 184.66C157.87 184.557 158.28 184.462 158.693 184.376C158.089 183.4 157.242 182.734 156.152 182.376C155.062 182.019 153.894 182.084 152.649 182.57C151.727 182.929 150.97 183.449 150.378 184.127C149.785 184.806 149.36 185.531 149.102 186.302L146.837 183.077C147.344 182.227 147.996 181.488 148.795 180.859C149.587 180.215 150.484 179.697 151.487 179.305ZM159.709 186.691C158.947 187.174 158.162 187.574 157.354 187.89L154.224 189.111C153.788 189.282 153.369 189.427 152.968 189.546C152.567 189.665 152.176 189.762 151.795 189.836C152.404 190.679 153.175 191.245 154.107 191.533C155.024 191.828 155.975 191.783 156.962 191.397C157.932 191.019 158.659 190.399 159.144 189.539C159.628 188.679 159.816 187.73 159.709 186.691ZM140.326 182.972L141.207 195.285L144.272 195.065L144.506 198.338L141.363 198.563L141.735 203.758L137.813 204.039L137.441 198.844L134.168 199.078L133.934 195.805L137.129 195.576L136.248 183.264L140.326 182.972ZM128.7 182.96L126.794 195.156L129.831 195.63L129.324 198.872L126.211 198.386L125.407 203.532L121.522 202.925L122.326 197.779L119.084 197.273L119.59 194.031L122.755 194.525L124.66 182.329L128.7 182.96ZM112.917 177.208C114.47 177.945 115.694 178.93 116.589 180.162C117.468 181.386 117.973 182.731 118.104 184.196C118.212 185.669 117.92 187.135 117.228 188.594C116.565 189.99 115.652 191.084 114.488 191.877C113.3 192.678 111.997 193.135 110.578 193.25C109.16 193.364 107.776 193.102 106.427 192.461C105.047 191.806 103.968 190.9 103.191 189.744C102.391 188.595 101.926 187.327 101.797 185.94C101.667 184.552 101.93 183.169 102.585 181.788L103.222 180.447L111.997 184.612C112.389 184.799 112.762 185.004 113.116 185.23C113.471 185.456 113.821 185.689 114.168 185.931C114.463 184.822 114.367 183.748 113.88 182.71C113.393 181.672 112.545 180.866 111.338 180.293C110.444 179.868 109.547 179.673 108.647 179.707C107.746 179.741 106.927 179.929 106.189 180.27L106.983 176.41C107.949 176.196 108.935 176.164 109.94 176.314C110.952 176.449 111.945 176.747 112.917 177.208ZM113.179 188.258C112.304 188.035 111.475 187.737 110.691 187.365L107.656 185.925C107.232 185.724 106.84 185.518 106.478 185.308C106.117 185.098 105.778 184.88 105.463 184.653C105.267 185.675 105.383 186.623 105.813 187.5C106.227 188.369 106.912 189.031 107.869 189.485C108.81 189.931 109.759 190.036 110.717 189.799C111.675 189.562 112.496 189.048 113.179 188.258ZM103.939 172.831L93.343 184.314L90.6445 181.824L92.4989 179.815C91.4784 180.101 90.4912 180.147 89.5373 179.952C88.5589 179.758 87.6423 179.266 86.7875 178.478L88.6254 175.142C88.7972 175.442 89.0362 175.734 89.3424 176.016C90.3376 176.934 91.4294 177.351 92.6177 177.267C93.8061 177.182 94.9419 176.553 96.025 175.379L100.935 170.059L103.939 172.831Z" fill="#892DDF"/>
<defs>
<filter id="filter0_d_1493_32" x="36.0234" y="40.1558" width="197.199" height="196.712" filterUnits="userSpaceOnUse" color-interpolation-filters="sRGB">
<feFlood flood-opacity="0" result="BackgroundImageFix"/>
<feColorMatrix in="SourceAlpha" type="matrix" values="0 0 0 0 0 0 0 0 0 0 0 0 0 0 0 0 0 0 127 0" result="hardAlpha"/>
<feOffset dy="4"/>
<feGaussianBlur stdDeviation="2"/>
<feComposite in2="hardAlpha" operator="out"/>
<feColorMatrix type="matrix" values="0 0 0 0 0 0 0 0 0 0 0 0 0 0 0 0 0 0 0.25 0"/>
<feBlend mode="normal" in2="BackgroundImageFix" result="effect1_dropShadow_1493_32"/>
<feBlend mode="normal" in="SourceGraphic" in2="effect1_dropShadow_1493_32" result="shape"/>
</filter>
<linearGradient id="paint0_linear_1493_32" x1="134.622" y1="0" x2="134.622" y2="268.492" gradientUnits="userSpaceOnUse">
<stop stop-color="#F6F1EE"/>
<stop offset="0.0865385" stop-color="#EDDEF3"/>
<stop offset="1" stop-color="#E6D0F7"/>
</linearGradient>
</defs>
</svg>
